
<!-- Generator: visioncortex VTracer 0.6.4 -->
<svg version="1.1" xmlns="http://www.w3.org/2000/svg" viewBox="0 0 1024 1024" preserveAspectRatio="xMidYMid meet">
<path d="M0 0 C2 1 2 1 2 1 Z M9.062 -0.188 C9.961 -0.202 10.859 -0.216 11.785 -0.23 C15.213 0.015 18.353 0.671 21.691 1.458 C23.825 1.959 25.962 2.402 28.113 2.824 C55.29 8.312 81.54 20.317 105 35 C105.723 35.451 106.447 35.903 107.192 36.368 C123.658 46.696 139.856 57.608 154 71 C155.369 72.215 156.744 73.424 158.125 74.625 C158.766 75.186 159.406 75.746 160.066 76.324 C161.379 77.461 162.699 78.589 164.027 79.707 C168.082 83.155 171.67 86.733 175.105 90.797 C177.23 93.268 179.457 95.624 181.688 98 C205.726 124.416 223.738 157.927 223.152 194.441 C221.641 219.818 213.028 240.054 194.57 257.266 C175.169 273.931 152.49 275.481 128 274 C107.898 272.144 88.211 265.404 68.973 259.586 C68.308 259.385 67.644 259.185 66.96 258.978 C63.778 258.015 60.599 257.044 57.424 256.058 C24.888 246.081 -0.224 249.564 -32 260 C-32.711 260.233 -33.423 260.467 -34.156 260.707 C-35.678 261.207 -37.2 261.707 -38.723 262.206 C-117.803 288.156 -117.803 288.156 -152.375 271.75 C-158.528 268.474 -163.824 264.653 -169 260 C-169.917 259.223 -169.917 259.223 -170.852 258.43 C-182.585 247.768 -190.684 230.553 -193 215 C-193.11 214.323 -193.219 213.646 -193.332 212.949 C-198.257 177.028 -182.001 141.763 -162 113 C-161.375 112.098 -160.75 111.195 -160.105 110.266 C-152.877 100.078 -144.653 90.701 -136.25 81.473 C-134.655 79.72 -133.073 77.956 -131.5 76.184 C-127.245 71.416 -122.99 66.894 -118.094 62.785 C-115.675 60.723 -113.38 58.55 -111.062 56.375 C-80.881 28.972 -41.999 5.756 -0.844 1.359 C2.731 0.908 5.353 -0.161 9.062 -0.188 Z " fill="#58D5CC" transform="translate(493,400)"/>
<path d="M0 0 C0.995 6.807 0.854 12.851 0.031 19.664 C-0.142 21.185 -0.142 21.185 -0.319 22.736 C-0.7 26.034 -1.098 29.33 -1.5 32.625 C-1.635 33.755 -1.771 34.885 -1.91 36.049 C-11.872 118.808 -11.872 118.808 -26 140 C-48.678 137.62 -72.82 118.702 -91 106 C-91.81 105.436 -92.62 104.872 -93.455 104.291 C-102.342 98.075 -110.899 91.622 -119.09 84.512 C-123.983 80.289 -128.979 76.114 -134.277 72.406 C-134.846 71.942 -135.414 71.478 -136 71 C-136 70.34 -136 69.68 -136 69 C-136.99 68.67 -137.98 68.34 -139 68 C-141.151 64.774 -141.624 63.747 -141 60 C-139.029 58.211 -139.029 58.211 -136.273 56.598 C-135.264 56.001 -134.254 55.404 -133.214 54.79 C-128.059 51.919 -122.877 49.127 -117.625 46.438 C-115.878 45.538 -115.878 45.538 -114.095 44.621 C-86.735 30.595 -58.852 17.624 -30.438 5.875 C-29.362 5.426 -28.287 4.976 -27.179 4.513 C-7.011 -3.7 -7.011 -3.7 0 0 Z " fill="#58D4CB" transform="translate(797,374)"/>
<path d="M0 0 C0.786 0.092 1.573 0.185 2.383 0.28 C8.418 1.071 13.661 2.432 19.062 5.312 C19.9 5.746 20.738 6.179 21.602 6.625 C35.382 14.285 43.791 26.704 48.371 41.656 C53.169 60.089 50.446 78.85 41.035 95.273 C32.807 107.95 21.021 116.266 6.379 119.996 C-9.046 123.169 -25.512 120.906 -38.938 112.312 C-48.411 105.648 -55.023 98.6 -60.25 88.312 C-60.588 87.648 -60.926 86.983 -61.274 86.299 C-68.137 72.163 -68.407 55.883 -63.934 40.965 C-58.553 25.783 -48.276 13.515 -34.086 5.781 C-23.033 0.625 -12.067 -1.438 0 0 Z " fill="#58D4CB" transform="translate(561.9375,272.6875)"/>
<path d="M0 0 C0.896 0.186 1.792 0.371 2.715 0.562 C17.654 4.339 30.073 15.946 38.061 28.736 C46.228 42.505 48.123 58.145 45.316 73.816 C43.048 81.638 39.722 90.285 33.875 96.121 C31.768 97.953 31.768 97.953 31 101 C29.375 102.066 27.694 103.047 26 104 C24.644 104.956 23.29 105.915 21.938 106.875 C8.09 116.046 -7.667 118.627 -24 116 C-31.593 114.143 -38.417 111.191 -45 107 C-45.654 106.606 -46.307 106.211 -46.98 105.805 C-58.757 97.953 -66.436 84.232 -69.805 70.789 C-71.738 60.061 -73.2 46.924 -68 37 C-67.49 35.909 -66.979 34.819 -66.453 33.695 C-59.248 18.457 -49.751 8.023 -33.688 1.688 C-22.224 -2.074 -11.769 -2.493 0 0 Z " fill="#58D4CB" transform="translate(311,346)"/>
<path d="M0 0 C12.724 11.03 20.783 24.386 22.082 41.426 C23.018 57.355 18.385 72.145 7.957 84.363 C0.838 91.712 -6.993 96.79 -16.73 99.926 C-17.771 100.264 -17.771 100.264 -18.832 100.609 C-32.715 104.379 -48.543 102.25 -61.043 95.238 C-74.83 86.1 -84.454 73.965 -88.516 57.801 C-91.416 42.129 -89.108 26.852 -80.492 13.375 C-75.141 5.936 -69.627 0.52 -61.73 -4.074 C-61.73 -4.734 -61.73 -5.394 -61.73 -6.074 C-60.926 -6.177 -60.122 -6.28 -59.293 -6.387 C-55.717 -7.077 -52.489 -8.118 -49.074 -9.355 C-32.451 -14.453 -13.693 -10.402 0 0 Z " fill="#58D4CB" transform="translate(445.73046875,302.07421875)"/>
<path d="M0 0 C1.521 27.373 -6.812 55.128 -25 76 C-41.08 92.83 -61.094 101.601 -83.438 106.812 C-84.373 107.032 -85.309 107.251 -86.274 107.477 C-98.579 110.211 -98.579 110.211 -103 108 C-102.455 103.44 -100.497 100.183 -98 96.438 C-97.598 95.825 -97.195 95.213 -96.781 94.583 C-90.57 85.231 -83.84 76.563 -76.164 68.375 C-73.993 66.084 -73.993 66.084 -72.336 63.688 C-71.895 63.131 -71.454 62.574 -71 62 C-70.34 62 -69.68 62 -69 62 C-68.598 61.108 -68.598 61.108 -68.188 60.198 C-66.988 57.978 -65.793 56.576 -63.988 54.828 C-63.398 54.25 -62.808 53.672 -62.2 53.076 C-61.577 52.473 -60.954 51.871 -60.312 51.25 C-50.697 41.905 -50.697 41.905 -43 31 C-42.018 29.982 -41.021 28.979 -40 28 C-51.301 33.771 -60.99 40.717 -70.117 49.495 C-73.798 53 -73.798 53 -76 53 C-76 53.66 -76 54.32 -76 55 C-76.66 55 -77.32 55 -78 55 C-78.381 55.882 -78.381 55.882 -78.77 56.781 C-80.138 59.249 -81.591 60.615 -83.688 62.5 C-94.489 73.039 -103.161 86.162 -111 99 C-115.295 105.776 -115.295 105.776 -118.145 106.68 C-118.757 106.785 -119.369 106.891 -120 107 C-123.033 103.943 -123.38 101.343 -123.417 97.113 C-123.403 96.354 -123.389 95.595 -123.375 94.812 C-123.365 94.018 -123.355 93.224 -123.344 92.405 C-122.71 67.572 -113.159 44.269 -95.137 26.898 C-74.815 8.843 -26.491 -10.235 0 0 Z " fill="#58D3CA" transform="translate(749,300)"/>
<path d="M0 0 C-3.969 2.223 -8.638 4.478 -13.219 3.551 C-13.807 3.369 -14.394 3.187 -15 3 C-9.897 1.095 -5.537 -0.426 0 0 Z M-15 5 C-16.599 5.699 -18.205 6.384 -19.812 7.062 C-20.706 7.445 -21.599 7.828 -22.52 8.223 C-25 9 -25 9 -28 8 C-26.59 7.298 -25.172 6.614 -23.75 5.938 C-22.961 5.555 -22.172 5.172 -21.359 4.777 C-18.74 3.914 -17.551 4.07 -15 5 Z M-31 9 C-30.01 9.33 -29.02 9.66 -28 10 C-29.965 11.068 -31.969 12.066 -34 13 C-34.66 12.67 -35.32 12.34 -36 12 C-33.688 10.438 -33.688 10.438 -31 9 Z M-38 13 C-37.34 13.33 -36.68 13.66 -36 14 C-37.65 14.66 -39.3 15.32 -41 16 C-40.01 15.01 -39.02 14.02 -38 13 Z M-43 16 C-42.34 16.33 -41.68 16.66 -41 17 C-41.762 17.69 -42.524 18.379 -43.309 19.09 C-49.705 24.904 -55.955 30.817 -62 37 C-62 32.051 -58.333 29.416 -55 26 C-46.098 17.549 -46.098 17.549 -43 16 Z M-64 37 C-63.67 37.66 -63.34 38.32 -63 39 C-63.99 39.99 -64.98 40.98 -66 42 C-65.34 40.35 -64.68 38.7 -64 37 Z " fill="#54B1A6" transform="translate(706,304)"/>
<path d="M0 0 C0 3 0 3 0 3 Z M-2 3 C-1.67 3.66 -1.34 4.32 -1 5 C-2.083 7.674 -3.385 10.206 -4.676 12.785 C-7.572 19.817 -8.365 26.756 -8.312 34.312 C-8.308 35.14 -8.304 35.967 -8.3 36.82 C-8.124 46.401 -5.996 54.704 -1.672 63.258 C-1.45 63.833 -1.228 64.408 -1 65 C-1.33 65.66 -1.66 66.32 -2 67 C-9.925 53.458 -13.642 36.298 -10.531 20.641 C-9.836 18.639 -8.991 16.874 -8 15 C-7.24 13.445 -7.24 13.445 -6.465 11.859 C-5.005 8.891 -3.515 5.941 -2 3 Z " fill="#53AEA2" transform="translate(251,368)"/>
<path d="M0 0 C0 3 0 3 -1.969 5.262 C-2.804 6.062 -3.639 6.863 -4.5 7.688 C-5.335 8.496 -6.171 9.304 -7.031 10.137 C-7.681 10.752 -8.331 11.366 -9 12 C-9 9 -9 9 -7.031 6.738 C-6.196 5.938 -5.361 5.137 -4.5 4.312 C-3.665 3.504 -2.829 2.696 -1.969 1.863 C-1.319 1.248 -0.669 0.634 0 0 Z M-22 24 C-23.408 27.215 -25.103 29.322 -27.625 31.75 C-28.572 32.67 -28.572 32.67 -29.539 33.609 C-30.262 34.298 -30.262 34.298 -31 35 C-31 31.26 -30.066 30.547 -27.625 27.812 C-26.999 27.097 -26.372 26.382 -25.727 25.645 C-24 24 -24 24 -22 24 Z M-33 35 C-33 35.99 -33 36.98 -33 38 C-33.99 38.495 -33.99 38.495 -35 39 C-34.34 37.68 -33.68 36.36 -33 35 Z M-37 39 C-36.34 39.33 -35.68 39.66 -35 40 C-36.65 41.65 -38.3 43.3 -40 45 C-38.125 40.125 -38.125 40.125 -37 39 Z " fill="#53AFA4" transform="translate(702,338)"/>
<path d="M0 0 C2 1 2 1 2 1 Z M5 4 C6.98 4.99 6.98 4.99 9 6 C8.01 6 7.02 6 6 6 C5.67 5.34 5.34 4.68 5 4 Z M15 13 C23.29 16.865 31.205 24.67 35 33 C30.078 28.994 25.553 24.664 21.062 20.188 C20.471 19.6 19.879 19.013 19.269 18.407 C15 14.124 15 14.124 15 13 Z " fill="#57B9AE" transform="translate(637,464)"/>
<path d="M0 0 C0.99 0.33 1.98 0.66 3 1 C-1.95 5.95 -6.9 10.9 -12 16 C-12 12.322 -11.232 11.776 -8.812 9.125 C-8.178 8.426 -7.544 7.728 -6.891 7.008 C-4.64 4.618 -2.356 2.285 0 0 Z M-14 16 C-13.67 16.66 -13.34 17.32 -13 18 C-13.99 18.99 -14.98 19.98 -16 21 C-15.34 19.35 -14.68 17.7 -14 16 Z " fill="#56BDB2" transform="translate(656,325)"/>
<path d="M0 0 C2 1 2 1 2 1 Z M6.391 -0.266 C11.643 -0.237 16.092 -0.122 21 2 C21 2.33 21 2.66 21 3 C14.559 3.107 8.374 2.962 2 2 C4 0 4 0 6.391 -0.266 Z " fill="#58C6BB" transform="translate(493,400)"/>
<path d="M0 0 C0.33 0.66 0.66 1.32 1 2 C-0.98 4.31 -2.96 6.62 -5 9 C-5.33 8.34 -5.66 7.68 -6 7 C-4.785 3.576 -2.982 1.988 0 0 Z " fill="#56BBB0" transform="translate(710,328)"/>
<path d="M0 0 C0 3 0 3 -2 5.188 C-2.66 5.786 -3.32 6.384 -4 7 C-3.436 3.73 -2.5 2.174 0 0 Z " fill="#54B1A6" transform="translate(341,500)"/>
<path d="" fill="#5CD9CF" transform="translate(0,0)"/>
<path d="M0 0 C2 1 2 1 2 1 Z " fill="#5AC5B9" transform="translate(355,678)"/>
<path d="M0 0 C2 1 2 1 2 1 Z " fill="#59BFB3" transform="translate(352,677)"/>
<path d="M0 0 C2 1 2 1 2 1 Z " fill="#5CCCC0" transform="translate(595,670)"/>
<path d="" fill="#5CCCC0" transform="translate(0,0)"/>
<path d="" fill="#5CCCC0" transform="translate(0,0)"/>
<path d="M0 0 C2 1 2 1 2 1 Z " fill="#5CD9CF" transform="translate(696,474)"/>
<path d="M0 0 C2 1 2 1 2 1 Z " fill="#5CD9CF" transform="translate(564,416)"/>
<path d="M0 0 C2 1 2 1 2 1 Z " fill="#5CD9CF" transform="translate(457,408)"/>
<path d="M0 0 C2 1 2 1 2 1 Z " fill="#5CD9CF" transform="translate(489,400)"/>
<path d="" fill="#57D5CC" transform="translate(0,0)"/>
<path d="M0 0 C2 1 2 1 2 1 Z " fill="#57D5CC" transform="translate(673,312)"/>
<path d="" fill="#383B3A" transform="translate(0,0)"/>
<path d="" fill="#5CCCC0" transform="translate(0,0)"/>
<path d="" fill="#59BFB3" transform="translate(0,0)"/>
<path d="" fill="#5CCCC0" transform="translate(0,0)"/>
<path d="" fill="#5CCCC0" transform="translate(0,0)"/>
<path d="" fill="#5CCCC0" transform="translate(0,0)"/>
<path d="" fill="#5CCCC0" transform="translate(0,0)"/>
<path d="" fill="#59BFB3" transform="translate(0,0)"/>
<path d="" fill="#59BFB3" transform="translate(0,0)"/>
<path d="" fill="#5CCCC0" transform="translate(0,0)"/>
<path d="" fill="#5CCCC0" transform="translate(0,0)"/>
<path d="" fill="#59BFB3" transform="translate(0,0)"/>
<path d="" fill="#59BFB3" transform="translate(0,0)"/>
<path d="" fill="#59BFB3" transform="translate(0,0)"/>
<path d="" fill="#5CCCC0" transform="translate(0,0)"/>
<path d="" fill="#57D5CC" transform="translate(0,0)"/>
<path d="" fill="#5CCCC0" transform="translate(0,0)"/>
<path d="" fill="#5CD9CF" transform="translate(0,0)"/>
<path d="" fill="#5CD9CF" transform="translate(0,0)"/>
<path d="" fill="#57D5CC" transform="translate(0,0)"/>
<path d="" fill="#5CD9CF" transform="translate(0,0)"/>
<path d="" fill="#5CD9CF" transform="translate(0,0)"/>
<path d="" fill="#5CCCC0" transform="translate(0,0)"/>
<path d="" fill="#5CD9CF" transform="translate(0,0)"/>
<path d="" fill="#5CD9CF" transform="translate(0,0)"/>
<path d="" fill="#5CD9CF" transform="translate(0,0)"/>
<path d="" fill="#5CD9CF" transform="translate(0,0)"/>
<path d="" fill="#5CCCC0" transform="translate(0,0)"/>
<path d="" fill="#5CCCC0" transform="translate(0,0)"/>
<path d="" fill="#5CCCC0" transform="translate(0,0)"/>
<path d="" fill="#5CCCC0" transform="translate(0,0)"/>
<path d="" fill="#5CCCC0" transform="translate(0,0)"/>
<path d="" fill="#5CCCC0" transform="translate(0,0)"/>
<path d="" fill="#5CD9CF" transform="translate(0,0)"/>
<path d="" fill="#59BFB3" transform="translate(0,0)"/>
<path d="" fill="#5CD9CF" transform="translate(0,0)"/>
<path d="" fill="#5CD9CF" transform="translate(0,0)"/>
<path d="" fill="#5CCCC0" transform="translate(0,0)"/>
<path d="" fill="#59BFB3" transform="translate(0,0)"/>
<path d="" fill="#5CD9CF" transform="translate(0,0)"/>
<path d="" fill="#5CD9CF" transform="translate(0,0)"/>
<path d="" fill="#57D5CC" transform="translate(0,0)"/>
<path d="" fill="#5CD9CF" transform="translate(0,0)"/>
<path d="" fill="#5CD9CF" transform="translate(0,0)"/>
<path d="" fill="#57D5CC" transform="translate(0,0)"/>
<path d="" fill="#5CCCC0" transform="translate(0,0)"/>
<path d="" fill="#5CD9CF" transform="translate(0,0)"/>
<path d="" fill="#5CD9CF" transform="translate(0,0)"/>
<path d="" fill="#5CD9CF" transform="translate(0,0)"/>
<path d="" fill="#5CD9CF" transform="translate(0,0)"/>
<path d="" fill="#5CD9CF" transform="translate(0,0)"/>
<path d="" fill="#5CD9CF" transform="translate(0,0)"/>
<path d="" fill="#5CD9CF" transform="translate(0,0)"/>
<path d="" fill="#5CD9CF" transform="translate(0,0)"/>
<path d="" fill="#5CD9CF" transform="translate(0,0)"/>
<path d="" fill="#5CD9CF" transform="translate(0,0)"/>
<path d="" fill="#5CCCC0" transform="translate(0,0)"/>
<path d="" fill="#5CD9CF" transform="translate(0,0)"/>
<path d="" fill="#57D5CC" transform="translate(0,0)"/>
<path d="" fill="#57D5CC" transform="translate(0,0)"/>
<path d="" fill="#5CCCC0" transform="translate(0,0)"/>
<path d="" fill="#59BFB3" transform="translate(0,0)"/>
<path d="" fill="#57D5CC" transform="translate(0,0)"/>
<path d="" fill="#5CD9CF" transform="translate(0,0)"/>
<path d="" fill="#57D5CC" transform="translate(0,0)"/>
<path d="" fill="#57D5CC" transform="translate(0,0)"/>
<path d="" fill="#57D5CC" transform="translate(0,0)"/>
<path d="" fill="#5CCCC0" transform="translate(0,0)"/>
<path d="" fill="#57D5CC" transform="translate(0,0)"/>
<path d="" fill="#5CCCC0" transform="translate(0,0)"/>
<path d="" fill="#5CD9CF" transform="translate(0,0)"/>
<path d="" fill="#5CCCC0" transform="translate(0,0)"/>
<path d="" fill="#5CCCC0" transform="translate(0,0)"/>
<path d="" fill="#5CD9CF" transform="translate(0,0)"/>
<path d="" fill="#5CCCC0" transform="translate(0,0)"/>
<path d="" fill="#57D5CC" transform="translate(0,0)"/>
<path d="" fill="#5CCCC0" transform="translate(0,0)"/>
<path d="" fill="#57D5CC" transform="translate(0,0)"/>
<path d="" fill="#5CCCC0" transform="translate(0,0)"/>
<path d="" fill="#57D5CC" transform="translate(0,0)"/>
<path d="" fill="#5CCCC0" transform="translate(0,0)"/>
<path d="" fill="#5CCCC0" transform="translate(0,0)"/>
<path d="" fill="#5CCCC0" transform="translate(0,0)"/>
<path d="" fill="#5CCCC0" transform="translate(0,0)"/>
<path d="" fill="#59BFB3" transform="translate(0,0)"/>
<path d="" fill="#5CCCC0" transform="translate(0,0)"/>
<path d="" fill="#5CCCC0" transform="translate(0,0)"/>
</svg>